<?xml version="1.0" encoding="utf-8"?>
<!-- Generator: Adobe Illustrator 27.1.0, SVG Export Plug-In . SVG Version: 6.00 Build 0)  -->
<svg version="1.1" id="Layer_1" vector-effect="non-scaling-stroke"
	 xmlns="http://www.w3.org/2000/svg" xmlns:xlink="http://www.w3.org/1999/xlink" x="0px" y="0px" viewBox="-5 -5 522 522"
	 style="enable-background:new 0 0 512 512;" xml:space="preserve">
<style type="text/css">
	.st0{stroke-width:5;fill:none;stroke:#1D3557;}
</style>
<g>
	<path class="st0" d="M500.6,267.4C500.6,267.4,500.6,267.4,500.6,267.4L500.6,267.4c0-119.6-85.9-219.2-199.3-240.4
		C282.5,27,267.2,43,267.2,61.8c0,6.7,1.9,13,5.2,18.3c0,0,0,0,0,0c5.4,8.6,14.4,14.6,24.9,15.8c0,0,0,0,0,0c0,0,0,0,0,0
		c77.4,18.7,135,88.5,135,171.5l0,0c0,0,0,0,0,0"/>
	<path class="st0" d="M251.9,79.3"/>
	<path class="st0" d="M432.4,267.4c0,97.2-79.1,176.4-176.4,176.4c-97.2,0-176.4-79.1-176.4-176.4c0-83,57.6-152.8,135-171.5
		c10.4,11,25.1,17.9,41.4,17.9c16.3,0,31-6.9,41.4-17.9"/>
	<path class="st0" d="M464.4,297.2"/>
	<path class="st0" d="M301.3,27C291.4,10.7,276.5,0,256,0c-20.7,0-38.8,11.1-48.8,27.6C95.5,50.2,11.4,149,11.4,267.4
		C11.4,402.5,120.9,512,256,512c135.1,0,244.6-109.5,244.6-244.6"/>
</g>
<circle fill="#1D3557" cx="237.2" cy="38.4" r="8.5"/>
</svg>
