<?xml version="1.0" encoding="UTF-8" standalone="no"?>
<svg
   height="344.20001"
   id="Layer_1"
   version="1.1"
   viewBox="0 0 344 344.20001"
   width="344"
   xml:space="preserve"
   xmlns="http://www.w3.org/2000/svg"
   xmlns:svg="http://www.w3.org/2000/svg"><defs
     id="defs334" /><path
     d="m 339.65,302.9 -131.2,-131.7 131.5,-130 c 5.4,-5.4 5.4,-14.2 0,-19.6 L 322.55,4 c -2.6,-2.6 -6.1,-4 -9.8,-4 -3.7,0 -7.2,1.5 -9.8,4 L 172.05,133.6 40.95,4.1 c -2.6,-2.6 -6.1,-4 -9.8,-4 -3.7,0 -7.2,1.5 -9.8,4 L 4.05,21.7 c -5.4,5.4 -5.4,14.2 0,19.6 l 131.5,130 -131.1,131.6 c -2.6,2.6 -4.1,6.1 -4.1,9.8 0,3.7 1.4,7.2 4.1,9.8 l 17.4,17.6 c 2.7,2.7 6.2,4.1 9.8,4.1 3.5,0 7.1,-1.3 9.8,-4.1 L 172.05,208.9 302.75,340 c 2.7,2.7 6.2,4.1 9.8,4.1 3.5,0 7.1,-1.3 9.8,-4.1 l 17.4,-17.6 c 2.6,-2.6 4.1,-6.1 4.1,-9.8 -0.1,-3.6 -1.6,-7.1 -4.2,-9.7 z"
     id="path329"
     style="fill:#ffffff;fill-opacity:1" /></svg>
